<svg width="67" height="38" fill="none" xmlns="http://www.w3.org/2000/svg"><ellipse cx="33.5" cy="15.5" rx="33.5" ry="15.5" fill="#D9D9D9"/><path d="M17.022 15.355c-1.177 1.309-.144 3.538-.734 5.012-.252.63-.532 3.125.05 3.416M22.033 16.04c0 2.423 1.02 4.373 2.683 6.098.602.624 1.033 1.86 1.303 2.67.284.85.717 2.11 1.025.57M30.233 16.04c0 2.9.982 5.929 1.494 8.781.137.768 1.695 5.041 1.695 2.38M41.622 16.495c-.17 1.88-.331 3.387.468 5.226.582 1.338 1.647 4.058 3.177 4.568M51.644 18.772c0 2.582.947 4.322 2.177 6.555.592 1.075 1.346 3.006 2.379 3.695M59.389 20.367c.729 2.996 2.387 6.086 4.1 8.655M19.072 24.011c0 2.285-.088 4.762-.455 7.01-.167 1.02.03 2.446-.911 1.19M8.822 21.733C8.675 23.207 8.75 24.85 8 26.175c-.314.555-.84 1.43-1.278 1.886-.39.403-.901.4-1.089.961M25.678 28.567v4.732c0 .563.497 3.063 1.139 2.101M34.333 27.883c0 1.247-.121 2.555.253 3.759.23.735.84 2.482 1.57 2.847M42.761 25.378c0 1.654-.175 3.192.683 4.67.49.843.856 1.853 1.367 2.619M52.1 26.29c0 1.114.091 2.237-.24 3.315a9.786 9.786 0 0 0-.443 3.024c0 .31.006 1.197-.228.493M35.472 23.556c.23 1.152.456 2.065.456 3.315 0 1.309-.188 2.728.228 3.974M22.489 22.417v4.555c0 .519.292 2.246-.228 2.506" stroke="#fff" stroke-width="3" stroke-linecap="round"/><path d="M20.211 8.294c0 1.25 1.38 1.963 2.506 1.367.84-.445.687-2.05-.342-2.05-2.842 0 .114 3.189.114.911M46.861 8.75c-1.112 0-3.342-.82-3.999.456-1.29 2.507 2.378 3.47 3.986 2.164 1.01-.82.434-2.564-.784-2.835-.976-.217-.577 1.354-1.48 1.354M17.478 22.644c.07-.627 1.129-.91 1.594-1.139 1.651-.813 3.357-1.162 5.138-1.581 2.904-.684 6.017-.469 8.984-.469 1.406 0 2.545.04 3.544 1.038.935.936 1.791 2.044 2.606 3.062" stroke="#000" stroke-width="3" stroke-linecap="round"/></svg>