<svg width="35" height="18" fill="none" xmlns="http://www.w3.org/2000/svg"><ellipse cx="17.807" cy="7.071" rx="16.89" ry="6.706" fill="#D9D9D9"/><path d="M9.5 7.008c-.594.566-.073 1.53-.37 2.168-.128.273-.269 1.352.025 1.478M12.026 7.304c0 1.049.514 1.892 1.353 2.639.303.27.52.804.657 1.155.143.368.361.913.517.246M16.16 7.304c0 1.255.495 2.565.753 3.8.07.332.855 2.18.855 1.029M21.902 7.5c-.086.814-.167 1.466.236 2.262.294.579.83 1.756 1.602 1.976M26.955 8.486c0 1.117.477 1.87 1.098 2.836.298.466.678 1.301 1.2 1.6M30.86 9.176c.367 1.297 1.204 2.634 2.067 3.745M10.533 10.753c0 .989-.044 2.06-.23 3.033-.083.441.016 1.058-.459.515M5.365 9.768c-.074.637-.036 1.347-.414 1.921-.159.24-.423.619-.645.816-.196.175-.454.173-.548.416M13.864 12.724v2.047c0 .244.25 1.326.574.91M18.227 12.428c0 .54-.06 1.105.128 1.626.115.319.423 1.074.791 1.232M22.477 11.344c0 .716-.088 1.381.344 2.02.247.366.432.802.69 1.134M27.185 11.739c0 .482.046.968-.121 1.434-.16.445-.224.842-.224 1.309 0 .134.004.517-.114.213M18.802 10.556c.116.498.23.893.23 1.434 0 .566-.095 1.18.114 1.72M12.255 10.063v1.971c0 .224.146.972-.114 1.084" stroke="#fff" stroke-width="3" stroke-linecap="round"/><path d="M11.107 3.953c0 .54.696.849 1.264.591.423-.192.346-.887-.173-.887-1.432 0 .058 1.38.058.394M24.544 4.15c-.561 0-1.685-.355-2.016.197-.65 1.085 1.198 1.502 2.01.936.508-.355.218-1.109-.396-1.226-.492-.094-.291.586-.747.586M9.73 10.162c.034-.272.569-.394.803-.493.833-.352 1.693-.503 2.59-.684 1.465-.296 3.034-.203 4.53-.203.709 0 1.283.017 1.787.449.471.405.903.884 1.314 1.325" stroke="#000" stroke-width="3" stroke-linecap="round"/></svg>