<svg width="31" height="351" fill="none" xmlns="http://www.w3.org/2000/svg"><path d="M4.5 14.3v10.484M26.5 14.5v10.484M4.667 14.097 15.5 2M26.333 14.097 15.5 2M4.5 25.5h22" stroke="#BABABA" stroke-width="3" stroke-linecap="round"/><rect x="4.5" y="81.5" width="21" height="28" rx="6.5" stroke="#BABABA" stroke-width="3"/><rect x="10.5" y="81" width="9" height="5" rx="2" fill="#BABABA"/><rect x="3" y="165" width="25" height="25" rx="5" fill="#BABABA"/><path fill="#3D3D3D" d="M0 170h31v5H0zM0 180h31v5H0z"/><rect x="4.5" y="251.5" width="14.708" height="13" rx="3.5" stroke="#BABABA" stroke-width="3"/><path d="M21.497 258.733a1 1 0 0 1 0-1.466l3-2.786c.64-.595 1.68-.141 1.68.732v5.574c0 .873-1.04 1.327-1.68.732l-3-2.786Z" fill="#BABABA"/><path d="M21.796 338.539c0 4.01-3.262 7.269-7.296 7.269-4.034 0-7.296-3.259-7.296-7.269 0-4.011 3.262-7.27 7.296-7.27 4.034 0 7.296 3.259 7.296 7.27Z" stroke="#BABABA" stroke-width="3"/><rect x="21.445" y="337.154" width="5.556" height="3.692" rx="1.846" fill="#BABABA"/><rect x="2" y="337.154" width="5.556" height="3.692" rx="1.846" fill="#BABABA"/><rect x="13.111" y="332.539" width="5.538" height="3.704" rx="1.852" transform="rotate(-90 13.111 332.539)" fill="#BABABA"/><rect width="5.547" height="3.698" rx="1.849" transform="scale(1.00154 .99846) rotate(-45 411.619 144.14)" fill="#BABABA"/><rect width="5.547" height="3.698" rx="1.849" transform="matrix(.7082 .70602 -.7082 .70602 20.36 341.769)" fill="#BABABA"/><rect width="5.547" height="3.698" rx="1.849" transform="scale(1.00154 .99846) rotate(-45 420.31 167.352)" fill="#BABABA"/><rect width="5.547" height="3.698" rx="1.849" transform="matrix(.7082 .70602 -.7082 .70602 6.47 328.846)" fill="#BABABA"/><rect x="13.111" y="351" width="5.538" height="3.704" rx="1.852" transform="rotate(-90 13.111 351)" fill="#BABABA"/></svg>